Coordinates
version=1
nRows=14
nColumns=40
inDegrees=yes

Units are S.I. units (second, meters, Newtons, ...)
If the header above contains a line with 'inDegrees', this indicates whether rotational values are in degrees (yes) or radians (no).

endheader
time	pelvis_tilt	pelvis_list	pelvis_rotation	pelvis_tx	pelvis_ty	pelvis_tz	hip_flexion_r	hip_adduction_r	hip_rotation_r	knee_angle_r	knee_angle_r_beta	ankle_angle_r	subtalar_angle_r	mtp_angle_r	hip_flexion_l	hip_adduction_l	hip_rotation_l	knee_angle_l	knee_angle_l_beta	ankle_angle_l	subtalar_angle_l	mtp_angle_l	lumbar_extension	lumbar_bending	lumbar_rotation	arm_flex_r	arm_add_r	arm_rot_r	elbow_flex_r	pro_sup_r	wrist_flex_r	wrist_dev_r	arm_flex_l	arm_add_l	arm_rot_l	elbow_flex_l	pro_sup_l	wrist_flex_l	wrist_dev_l
      1.50000000	      9.31415491	      5.15886550	      1.83404891	     -0.38704412	      0.93519700	     -0.76010938	     24.45423845	     -1.53060328	     -2.16732970	     56.70750249	      0.98973263	     15.86424984	      0.00000000	      0.00000000	     47.45911138	      5.21659789	      5.67635268	     13.47591778	      0.23519914	     -8.61193729	      0.00000000	      0.00000000	    -39.85308390	     -1.12188022	     -1.99734990	     89.19186367	    -15.03579485	     25.47855921	     46.29123448	     87.58342058	      0.00000000	      0.00000000	     89.71000295	     -8.87587140	     19.90218764	     43.16616918	     86.48508531	      0.00000000	      0.00000000
      1.50500000	      9.27003250	      5.15929605	      1.83992946	     -0.38725807	      0.93419620	     -0.76007768	     24.65712038	     -1.51074927	     -2.11397642	     56.97435863	      0.99439015	     15.95306337	      0.00000000	      0.00000000	     47.59768084	      5.20513002	      5.55404674	     13.44060824	      0.23458287	     -8.67896715	      0.00000000	      0.00000000	    -39.86800229	     -1.11465864	     -1.99859924	     89.20974456	    -15.01133126	     25.38209147	     46.36123906	     87.46772829	      0.00000000	      0.00000000	     89.71676924	     -8.85697137	     19.78828354	     43.21284608	     86.66918001	      0.00000000	      0.00000000
      1.51000000	      9.21158776	      5.12543365	      1.87757785	     -0.38748908	      0.93320116	     -0.76009435	     24.85630799	     -1.49297945	     -2.14800377	     57.20231410	      0.99836872	     16.03608566	      0.00000000	      0.00000000	     47.74470119	      5.21223829	      5.61121384	     13.41781745	      0.23418509	     -8.63012710	      0.00000000	      0.00000000	    -39.89103733	     -1.05076192	     -2.03958634	     89.23376985	    -14.91256552	     25.34940798	     46.23788198	     87.52247852	      0.00000000	      0.00000000	     89.72307593	     -8.88510149	     19.63804005	     43.29573289	     86.64157610	      0.00000000	      0.00000000
      1.51500000	      9.21116822	      5.10757291	      1.87934644	     -0.38776862	      0.93228153	     -0.76000439	     25.00128043	     -1.45148928	     -2.12013760	     57.45873539	      1.00284412	     16.16658925	      0.00000000	      0.00000000	     47.87515973	      5.18967523	      5.51661180	     13.47889241	      0.23525105	     -8.64120315	      0.00000000	      0.00000000	    -39.95144620	     -1.03991422	     -2.05065742	     89.25763949	    -14.83580271	     25.09844993	     46.25336737	     87.63225693	      0.00000000	      0.00000000	     89.72917818	     -8.92763792	     19.69875072	     43.41954084	     86.30899532	      0.00000000	      0.00000000
      1.52000000	      9.17252113	      5.05915968	      1.90941307	     -0.38799024	      0.93134791	     -0.75994441	     25.16062185	     -1.39387392	     -2.13791912	     57.65282469	      1.00623161	     16.24764754	      0.00000000	      0.00000000	     48.00638251	      5.17028305	      5.58737918	     13.46907432	      0.23507969	     -8.61095055	      0.00000000	      0.00000000	    -39.98437817	     -0.97411149	     -2.06309211	     89.27449119	    -14.76983763	     24.97863351	     46.24546724	     87.62393702	      0.00000000	      0.00000000	     89.73489405	     -8.95193138	     19.59016804	     43.51009342	     86.37259184	      0.00000000	      0.00000000
      1.52500000	      9.13988207	      5.04071807	      1.92405881	     -0.38825568	      0.93039416	     -0.75992045	     25.34319348	     -1.35691549	     -2.10180912	     57.89522188	      1.01046224	     16.34624069	      0.00000000	      0.00000000	     48.14999217	      5.16683234	      5.55971738	     13.48081854	      0.23528467	     -8.60457352	      0.00000000	      0.00000000	    -40.02022952	     -0.93863329	     -2.07292169	     89.30222948	    -14.73739797	     24.94997518	     46.24857191	     87.59471873	      0.00000000	      0.00000000	     89.73619251	     -8.94118235	     19.48998752	     43.58633641	     86.41088369	      0.00000000	      0.00000000
      1.53000000	      9.11690517	      5.03528014	      1.93237711	     -0.38846382	      0.92947512	     -0.75989459	     25.49405854	     -1.34316432	     -2.07410762	     58.12856437	      1.01453484	     16.45366742	      0.00000000	      0.00000000	     48.28320267	      5.17278927	      5.49914582	     13.51231387	      0.23583437	     -8.63089360	      0.00000000	      0.00000000	    -40.06487676	     -0.92900005	     -2.08310218	     89.31416337	    -14.69292661	     24.86168110	     46.27716084	     87.52798249	      0.00000000	      0.00000000	     89.74281812	     -8.92466747	     19.35072510	     43.63929185	     86.57131476	      0.00000000	      0.00000000
      1.53500000	      9.10407783	      4.99437685	      1.98822887	     -0.38870518	      0.92856078	     -0.75985757	     25.62144514	     -1.30871693	     -2.12206546	     58.31770090	      1.01783589	     16.56793275	      0.00000000	      0.00000000	     48.38396809	      5.17891890	      5.55308183	     13.50505940	      0.23570775	     -8.59445289	      0.00000000	      0.00000000	    -40.12053080	     -0.86786685	     -2.07476248	     89.34840982	    -14.61320396	     24.80035463	     46.13146362	     87.62441845	      0.00000000	      0.00000000	     89.74858369	     -8.88523438	     19.29650959	     43.71058429	     86.42432551	      0.00000000	      0.00000000
      1.54000000	      9.09291609	      4.97754865	      1.98252840	     -0.38894337	      0.92768249	     -0.75978280	     25.76520884	     -1.26447921	     -2.07877077	     58.54502433	      1.02180344	     16.66723335	      0.00000000	      0.00000000	     48.49861434	      5.16325009	      5.46157147	     13.53429816	      0.23621806	     -8.55031511	      0.00000000	      0.00000000	    -40.17792423	     -0.85449824	     -2.06989153	     89.37264568	    -14.60319311	     24.78448117	     46.16075513	     87.55283084	      0.00000000	      0.00000000	     89.75203934	     -8.90723281	     19.26825004	     43.83014407	     86.55494277	      0.00000000	      0.00000000
      1.54500000	      9.05643732	      4.96818571	      2.00992451	     -0.38916222	      0.92678011	     -0.75982433	     25.93428178	     -1.26368156	     -2.08343791	     58.77375460	      1.02579553	     16.76033279	      0.00000000	      0.00000000	     48.61640990	      5.18281750	      5.50442591	     13.51912089	      0.23595317	     -8.55103090	      0.00000000	      0.00000000	    -40.21264241	     -0.82793080	     -2.09079509	     89.38210410	    -14.56968567	     24.67613484	     46.16880077	     87.58349229	      0.00000000	      0.00000000	     89.75442050	     -8.84964264	     19.04576884	     43.85266973	     86.54063031	      0.00000000	      0.00000000
      1.55000000	      9.04995944	      4.93906646	      2.06877477	     -0.38938320	      0.92586261	     -0.75986108	     26.05866891	     -1.25659663	     -2.13950700	     58.98660925	      1.02951055	     16.86483759	      0.00000000	      0.00000000	     48.72595656	      5.21213850	      5.48930040	     13.54077687	      0.23633114	     -8.51108654	      0.00000000	      0.00000000	    -40.26686244	     -0.76458130	     -2.13680745	     89.39533848	    -14.50956474	     24.59012709	     46.14784904	     87.53768390	      0.00000000	      0.00000000	     89.75969904	     -8.86912560	     19.00534001	     43.93703053	     86.58510850	      0.00000000	      0.00000000
      1.55500000	      9.06404682	      4.89736683	      2.11031319	     -0.38960198	      0.92502280	     -0.75983480	     26.16713602	     -1.22987724	     -2.19358600	     59.20092905	      1.03325113	     16.84015601	      0.00000000	      0.00000000	     48.76467924	      5.20131386	      5.56733084	     13.44344364	      0.23463235	     -8.57904783	      0.00000000	      0.00000000	    -40.33499355	     -0.68630579	     -2.21149219	     89.42121726	    -14.56368994	     24.85532651	     46.40774111	     87.00231226	      0.00000000	      0.00000000	     89.76528358	     -9.06162172	     19.27981712	     44.12103066	     85.52690745	      0.00000000	      0.00000000
      1.56000000	      9.02636843	      4.87823379	      2.13777809	     -0.38985647	      0.92411730	     -0.75979799	     26.31199990	     -1.20566021	     -2.19901151	     59.37592935	      1.03630546	     17.08728756	      0.00000000	      0.00000000	     48.94998366	      5.20330874	      5.36304548	     13.55267023	      0.23653872	     -8.64905739	      0.00000000	      0.00000000	    -40.37361180	     -0.67894163	     -2.16614067	     89.41729801	    -14.44611057	     24.36793669	     46.20100178	     87.54109780	      0.00000000	      0.00000000	     89.76569986	     -8.86367950	     18.88642228	     44.11440146	     86.52304753	      0.00000000	      0.00000000
      1.56500000	      8.99869187	      4.86340098	      2.16289525	     -0.39006682	      0.92321981	     -0.75979056	     26.46515461	     -1.18826092	     -2.19484274	     59.59705734	      1.04016488	     17.19786451	      0.00000000	      0.00000000	     49.07408276	      5.22041552	      5.36784777	     13.57660736	      0.23695650	     -8.62657013	      0.00000000	      0.00000000	    -40.41228774	     -0.64811773	     -2.18169239	     89.43535145	    -14.39706464	     24.35014630	     46.15257195	     87.55462383	      0.00000000	      0.00000000	     89.77041588	     -8.85312285	     18.80127308	     44.18903856	     86.49626176	      0.00000000	      0.00000000
